<?xml version="1.0" encoding="UTF-8"?>
<svg width="200" height="200" viewBox="0 0 200 200" xmlns="http://www.w3.org/2000/svg">
    <defs>
        <linearGradient id="yinyang" x1="0%" y1="0%" x2="100%" y2="0%">
            <stop offset="50%" style="stop-color:#000000"/>
            <stop offset="50%" style="stop-color:#FFFFFF"/>
        </linearGradient>
    </defs>
    
    <!-- 外圈 -->
    <circle cx="100" cy="100" r="90" fill="none" stroke="#D4AF37" stroke-width="2"/>
    
    <!-- 阴阳图案 -->
    <path d="M100 10
             A 90 90 0 0 1 100 190
             A 45 45 0 0 1 100 100
             A 45 45 0 0 0 100 10"
          fill="black"/>
    <path d="M100 10
             A 90 90 0 0 0 100 190
             A 45 45 0 0 0 100 100
             A 45 45 0 0 1 100 10"
          fill="white"/>
    
    <!-- 阴阳眼 -->
    <circle cx="100" cy="55" r="10" fill="white"/>
    <circle cx="100" cy="145" r="10" fill="black"/>
    
    <!-- 装饰性边框 -->
    <circle cx="100" cy="100" r="90" fill="none" stroke="#D4AF37" stroke-width="2"/>
</svg> 